<svg width="120" height="34" viewBox="0 0 120 34" fill="none" xmlns="http://www.w3.org/2000/svg">
<path fill-rule="evenodd" clip-rule="evenodd" d="M26.5515 1.38153C26.0444 0.524733 25.1283 0 24.1395 0H10.6886C9.55672 0 8.50803 0.598778 7.92638 1.5776L2.26309 11.098C2.1305 11.3212 2.12976 11.5993 2.26084 11.8233L7.41665 20.6172C7.68294 21.0717 8.3305 21.083 8.61253 20.6391L14.1586 11.9064C14.7507 10.9741 15.7732 10.41 16.8706 10.41H30.6552C31.2002 10.41 31.5376 9.81089 31.2582 9.33867L26.5515 1.38153Z" fill="#01FF84"/>
<path fill-rule="evenodd" clip-rule="evenodd" d="M23.9416 13.3827C23.6756 12.9286 23.0285 12.9169 22.7461 13.3611L17.2 22.0935C16.6075 23.0258 15.5854 23.5899 14.4876 23.5899H0.702983C0.158039 23.5899 -0.17904 24.189 0.100361 24.6612L4.80673 32.6184C5.31384 33.4755 6.22995 33.9999 7.21946 33.9999H20.6704C21.8015 33.9999 22.8502 33.4011 23.4326 32.4227L29.0955 22.9019C29.2277 22.679 29.2288 22.4006 29.0977 22.177L23.9416 13.3827Z" fill="#01FF84"/>
<path fill-rule="evenodd" clip-rule="evenodd" d="M52.826 17.4478C52.826 16.7602 52.7484 16.1395 52.5949 15.5865C52.4406 15.0345 52.1837 14.5283 51.8241 14.0701C51.4646 13.6118 50.9971 13.1838 50.4219 12.7875C49.8462 12.3912 49.1275 11.9946 48.2646 11.599C47.7511 11.3489 47.3248 11.1249 46.9855 10.9266C46.6466 10.7286 46.3739 10.5352 46.1687 10.3474C45.9634 10.1601 45.8245 9.96703 45.7526 9.76907C45.6807 9.57074 45.6447 9.34709 45.6447 9.097C45.6447 8.53374 45.8511 8.0906 46.2638 7.7676C46.6765 7.4446 47.244 7.28254 47.966 7.28254C48.5237 7.28254 49.096 7.40229 49.684 7.64143C50.2724 7.88132 50.9065 8.2708 51.5874 8.81216H51.5878L53.878 4.8334C52.8458 4.17267 51.8507 3.69214 50.8915 3.39256C49.9316 3.09298 48.926 2.94263 47.8735 2.94263C46.7795 2.94263 45.7687 3.10923 44.8402 3.44167C43.9114 3.77412 43.1117 4.23123 42.4413 4.81263C41.7705 5.39478 41.2443 6.08536 40.8631 6.88549C40.4807 7.68525 40.29 8.55225 40.29 9.48725C40.29 10.1729 40.3675 10.786 40.5222 11.3263C40.6769 11.8661 40.935 12.3701 41.296 12.8374C41.6571 13.3047 42.1421 13.7459 42.7511 14.1619C43.3593 14.5774 44.1282 15.024 45.0571 15.5018C46.0267 15.9797 46.6709 16.3745 46.9915 16.6862C47.311 16.9982 47.4709 17.3926 47.4709 17.8701C47.4709 18.4938 47.2181 18.9974 46.7129 19.3816C46.2069 19.7658 45.5413 19.9581 44.7166 19.9581C44.0147 19.9581 43.344 19.8384 42.7046 19.5988C42.0649 19.3601 41.2807 18.9177 40.3518 18.2725H40.3514L37.9998 22.2837V22.2841C38.7009 22.7242 39.3406 23.091 39.9181 23.3846C40.4956 23.6781 41.0567 23.9138 41.602 24.0921C42.1477 24.2697 42.6881 24.3955 43.2234 24.4692C43.7582 24.5417 44.3346 24.5787 44.9526 24.5787C47.3402 24.5787 49.2443 23.8912 50.6645 22.5142C51.3645 21.8474 51.8998 21.0809 52.2702 20.2158C52.6406 19.3503 52.826 18.4277 52.826 17.4478Z" fill="white"/>
<path fill-rule="evenodd" clip-rule="evenodd" d="M64.8035 14.1822L65.2987 10.2174C65.2987 10.217 65.2983 10.217 65.2983 10.217H62.5751C62.5751 10.217 62.5747 10.217 62.5751 10.2166L63.1013 5.75282C63.1013 5.75244 63.1009 5.75244 63.1009 5.75244H58.0249H58.0245L57.468 10.217C57.468 10.217 57.468 10.217 57.4676 10.217H55.3013L54.8062 14.1822H57.0032C57.0032 14.1822 57.0035 14.1822 57.0035 14.1826L55.7653 24.1725V24.1729H60.8724L60.8728 24.1725L62.0796 14.1822H62.0799H64.8032C64.8035 14.1822 64.8035 14.1822 64.8035 14.1822Z" fill="white"/>
<path fill-rule="evenodd" clip-rule="evenodd" d="M76.0855 14.5656C76.4256 14.6544 76.8016 14.8074 77.2151 15.0246H77.2155L77.7724 10.2488C77.7724 10.2484 77.7721 10.2484 77.7721 10.2484C77.5447 10.228 77.3488 10.217 77.1844 10.217H76.7818C76.2867 10.217 75.8428 10.2488 75.4507 10.3119C75.0586 10.3746 74.687 10.4796 74.3365 10.6262C73.9855 10.7731 73.635 10.9669 73.284 11.208C72.9331 11.449 72.5616 11.7576 72.1702 12.1354C72.1698 12.1354 72.1698 12.1354 72.1698 12.135L72.5721 10.2174V10.217H67.4649H67.4646L65.7627 24.1725V24.1729H70.8694C70.8698 24.1729 70.8698 24.1725 70.8698 24.1725L71.5818 18.2599C71.6848 17.5338 71.7878 16.9842 71.8912 16.6106C71.9942 16.2369 72.1391 15.9052 72.3249 15.6144C72.8612 14.8259 73.7178 14.4319 74.8938 14.4319C75.3473 14.4319 75.7447 14.4769 76.0855 14.5656Z" fill="white"/>
<path fill-rule="evenodd" clip-rule="evenodd" d="M83.3437 1.91235C82.91 1.91235 82.5077 1.99055 82.1366 2.14658C81.765 2.3026 81.4403 2.52133 81.1617 2.80202C80.883 3.08346 80.6605 3.40609 80.4957 3.77026C80.3306 4.13444 80.2478 4.52469 80.2478 4.941C80.2478 5.81518 80.5422 6.54844 81.1302 7.14193C81.7182 7.73504 82.4351 8.0316 83.2815 8.0316C84.128 8.0316 84.8396 7.73504 85.4175 7.14193C85.9946 6.54844 86.2845 5.81518 86.2845 4.941C86.2845 4.08798 85.9999 3.36944 85.4328 2.78653C84.865 2.204 84.1688 1.91235 83.3437 1.91235Z" fill="white"/>
<path fill-rule="evenodd" clip-rule="evenodd" d="M80.0629 10.2173L78.3603 24.1724C78.3599 24.1728 78.3603 24.1728 78.3603 24.1728H83.4674L85.1696 10.2173H80.0629Z" fill="white"/>
<path fill-rule="evenodd" clip-rule="evenodd" d="M105.257 10.2173H99.5933L96.9622 14.3071C96.5903 14.8689 96.2446 15.4469 95.9248 16.04C95.6049 16.6331 95.2802 17.2625 94.9503 17.9285C94.9503 17.9285 94.9503 17.9285 94.9499 17.9285C94.7435 17.1374 94.5634 16.4665 94.4083 15.9149C94.254 15.3638 94.0937 14.8798 93.9285 14.4631L92.3813 10.2173H92.381H87.0574L92.4742 24.1728H95.9405C95.9409 24.1728 95.9409 24.1728 95.9409 24.1728L105.257 10.2173Z" fill="white"/>
<path fill-rule="evenodd" clip-rule="evenodd" d="M42.5434 29.0865C42.4479 29.0547 42.3517 29.0249 42.2547 28.9969C42.1633 28.9701 42.0805 28.9388 42.0082 28.9036C41.9404 28.8704 41.8854 28.8307 41.8453 28.7865C41.8112 28.7495 41.7947 28.7023 41.7947 28.6422C41.7947 28.5515 41.8311 28.4805 41.906 28.4238C42.052 28.3132 42.3063 28.2999 42.5629 28.4012C42.6592 28.439 42.7562 28.4945 42.8528 28.5659C42.8895 28.5927 42.9348 28.6022 42.9768 28.5916C43.0183 28.5818 43.0532 28.5542 43.0723 28.516L43.4588 27.7518C43.4959 27.6777 43.467 27.5867 43.394 27.5497C43.1902 27.4458 42.9753 27.3646 42.7558 27.3083C42.2483 27.1779 41.7652 27.1828 41.3846 27.3256C41.1858 27.4001 41.0146 27.5062 40.8764 27.6418C40.7382 27.7771 40.6296 27.9418 40.5535 28.1303C40.4775 28.3181 40.4389 28.53 40.4389 28.7608C40.4389 28.9924 40.4756 29.1881 40.549 29.3422C40.6221 29.4952 40.7195 29.6244 40.8389 29.7264C40.9577 29.8265 41.0929 29.9078 41.2416 29.9671C41.3872 30.0252 41.5367 30.0789 41.6835 30.1254C41.8075 30.1688 41.9131 30.2077 42.0007 30.2432C42.0824 30.2757 42.1483 30.3112 42.1981 30.349C42.2427 30.383 42.2749 30.4193 42.2932 30.4578C42.312 30.4963 42.321 30.5443 42.321 30.6002C42.321 30.6898 42.2839 30.7687 42.2067 30.8416C42.1296 30.9145 42.0052 30.9516 41.8371 30.9516C41.6835 30.9516 41.5255 30.916 41.3674 30.845C41.2281 30.7831 41.085 30.6909 40.9427 30.5719C40.9078 30.5424 40.8625 30.5311 40.818 30.5398C40.7745 30.5481 40.7382 30.5757 40.7176 30.6146L40.2966 31.4128C40.2614 31.4804 40.2831 31.5662 40.3461 31.6089C40.8191 31.9266 41.3386 32.0875 41.8902 32.0875C42.1674 32.0875 42.4198 32.0494 42.6408 31.9738C42.8633 31.8975 43.0539 31.7887 43.2078 31.6501C43.3629 31.5107 43.4816 31.3407 43.5622 31.145C43.6423 30.9508 43.6828 30.7313 43.6828 30.4933C43.6828 30.1363 43.5887 29.842 43.4034 29.6172C43.221 29.3959 42.9314 29.2176 42.5434 29.0865Z" fill="white"/>
<path fill-rule="evenodd" clip-rule="evenodd" d="M54.6623 27.4315C54.4893 27.3608 54.32 27.3075 54.1597 27.272C53.6762 27.1655 53.1616 27.2067 52.7061 27.3944C52.4159 27.5149 52.1578 27.6838 51.9391 27.8965C51.7189 28.1107 51.5414 28.368 51.4106 28.6615C51.2796 28.9565 51.2129 29.2852 51.2129 29.6388C51.2129 29.992 51.2807 30.3226 51.4136 30.6218C51.5466 30.9199 51.7249 31.1813 51.9444 31.3985C52.1642 31.6161 52.4219 31.7869 52.7091 31.907C52.9979 32.0267 53.3032 32.0876 53.617 32.0876C53.7706 32.0876 53.9279 32.0721 54.0844 32.0415C54.2399 32.0113 54.4099 31.9637 54.5893 31.8994L54.7065 31.8579C54.7365 31.8469 54.7567 31.8186 54.7567 31.7865V30.584C54.7567 30.5247 54.7219 30.4714 54.6687 30.4469C54.6151 30.4238 54.5556 30.4329 54.5129 30.4714C54.2646 30.6955 53.987 30.8088 53.6878 30.8088C53.5305 30.8088 53.3818 30.7793 53.247 30.7204C53.1118 30.6618 52.9923 30.5791 52.8912 30.476C52.7908 30.3725 52.7106 30.2489 52.6545 30.1088C52.5972 29.9682 52.5687 29.8122 52.5687 29.6445C52.5687 29.4817 52.5972 29.3275 52.6545 29.1866C52.7106 29.0465 52.7897 28.9241 52.8885 28.8228C52.9863 28.7216 53.1061 28.6403 53.2436 28.581C53.3811 28.5225 53.5324 28.4926 53.6938 28.4926C54.0065 28.4926 54.2803 28.6056 54.508 28.8296C54.5507 28.8715 54.6114 28.8833 54.6664 28.8591C54.7211 28.836 54.7567 28.782 54.7567 28.7219V27.5712C54.7567 27.51 54.7185 27.4541 54.6623 27.4315Z" fill="white"/>
<path fill-rule="evenodd" clip-rule="evenodd" d="M66.2596 27.4629H65.2525C65.1709 27.4629 65.1046 27.5301 65.1046 27.6121L65.1068 29.1893H63.59V27.6121C63.59 27.5301 63.5237 27.4629 63.4424 27.4629H62.4349C62.3533 27.4629 62.2874 27.5301 62.2874 27.6121V31.9388C62.2874 32.0204 62.3533 32.0876 62.4349 32.0876H63.4424C63.5237 32.0876 63.59 32.0204 63.59 31.9388L63.5877 30.2426L65.1046 30.2407V31.9388C65.1046 32.0204 65.1709 32.0876 65.2525 32.0876H66.2596C66.3413 32.0876 66.4076 32.0204 66.4076 31.9388V27.6121C66.4076 27.5301 66.3413 27.4629 66.2596 27.4629Z" fill="white"/>
<path fill-rule="evenodd" clip-rule="evenodd" d="M77.5496 30.1126C77.4874 30.2523 77.4013 30.3759 77.2927 30.4801C77.1844 30.5836 77.0582 30.6652 76.917 30.7227C76.6339 30.8375 76.2961 30.8375 76.0137 30.7227C75.8725 30.6656 75.7474 30.584 75.6406 30.4805C75.5343 30.3766 75.4489 30.2527 75.3867 30.1126C75.3249 29.9728 75.2934 29.8175 75.2934 29.6509C75.2934 29.4843 75.3249 29.329 75.3867 29.1893C75.4489 29.0491 75.5343 28.9248 75.6406 28.8213C75.747 28.7182 75.8725 28.6366 76.014 28.5788C76.1549 28.5214 76.3069 28.4926 76.465 28.4926C76.6234 28.4926 76.7755 28.5214 76.9167 28.5788C77.0582 28.6366 77.1848 28.7186 77.2927 28.8217C77.4013 28.9256 77.4878 29.0495 77.5496 29.1893C77.6114 29.329 77.6429 29.4843 77.6429 29.6509C77.6429 29.8175 77.6114 29.9728 77.5496 30.1126ZM78.2852 27.9173C78.0612 27.6982 77.7912 27.524 77.4807 27.4001C77.1713 27.2766 76.8298 27.2139 76.465 27.2139C76.0964 27.2139 75.7537 27.2766 75.4462 27.4005C75.1384 27.524 74.8698 27.6982 74.6485 27.9177C74.4264 28.1372 74.2507 28.3982 74.126 28.6925C74.0009 28.9872 73.9373 29.3098 73.9373 29.6509C73.9373 29.9924 74.0009 30.3147 74.126 30.609C74.2507 30.9036 74.4264 31.1643 74.6481 31.3834C74.8698 31.6033 75.1384 31.7774 75.4462 31.901C75.7537 32.0249 76.0964 32.088 76.465 32.088C76.8298 32.088 77.1713 32.0249 77.4807 31.9013C77.7912 31.7774 78.0616 31.6033 78.2852 31.3838C78.5088 31.1643 78.6852 30.9036 78.8103 30.609C78.9354 30.3143 78.9987 29.992 78.9987 29.6509C78.9987 29.3102 78.9354 28.9875 78.8103 28.6925C78.6856 28.3982 78.5088 28.1372 78.2852 27.9173Z" fill="white"/>
<path fill-rule="evenodd" clip-rule="evenodd" d="M90.1414 30.1122C90.0789 30.2531 89.9927 30.3766 89.8845 30.4801C89.7762 30.5836 89.65 30.6656 89.5081 30.7227C89.2264 30.8375 88.8882 30.8375 88.6051 30.7227C88.4639 30.6656 88.3388 30.584 88.2324 30.4805C88.1264 30.377 88.041 30.2535 87.9785 30.1126C87.9163 29.972 87.8849 29.8168 87.8849 29.6509C87.8849 29.4851 87.9163 29.3298 87.9785 29.1893C88.041 29.0484 88.1261 28.9244 88.2324 28.8209C88.3384 28.7182 88.4639 28.6366 88.6051 28.5788C88.7467 28.5214 88.8987 28.4926 89.0568 28.4926C89.2152 28.4926 89.3673 28.5214 89.5081 28.5788C89.65 28.6366 89.7766 28.7186 89.8845 28.8217C89.9927 28.9248 90.0789 29.0487 90.1414 29.1893C90.2032 29.329 90.2347 29.4843 90.2347 29.6509C90.2347 29.8175 90.2032 29.9728 90.1414 30.1122ZM90.8766 27.9173C90.6526 27.6978 90.3822 27.5236 90.0721 27.4001C89.7631 27.2766 89.4216 27.2139 89.0568 27.2139C88.6882 27.2139 88.3455 27.2766 88.038 27.4005C87.7306 27.524 87.462 27.6982 87.2395 27.9177C87.0182 28.1372 86.8425 28.3982 86.7174 28.6925C86.5923 28.9875 86.5291 29.3102 86.5291 29.6509C86.5291 29.992 86.5923 30.3143 86.7174 30.609C86.8425 30.9036 87.0182 31.1643 87.2399 31.3834C87.4616 31.6033 87.7306 31.7774 88.038 31.901C88.3455 32.0249 88.6882 32.0876 89.0568 32.0876C89.4216 32.0876 89.7631 32.0249 90.0721 31.9013C90.3822 31.7774 90.6526 31.6033 90.8766 31.3838C91.1006 31.1643 91.277 30.9036 91.4017 30.609C91.5268 30.3135 91.5905 29.9913 91.5905 29.6509C91.5905 29.3105 91.5268 28.9879 91.4017 28.6925C91.2774 28.3982 91.1006 28.1372 90.8766 27.9173Z" fill="white"/>
<path fill-rule="evenodd" clip-rule="evenodd" d="M101.658 30.9515L100.423 30.9538V27.612C100.423 27.53 100.357 27.4631 100.276 27.4631H99.2684C99.1868 27.4631 99.1208 27.53 99.1208 27.612V31.9387C99.1208 32.0206 99.1868 32.0879 99.2684 32.0879H101.658C101.74 32.0879 101.806 32.0206 101.806 31.9387V31.1008C101.806 31.0188 101.74 30.9515 101.658 30.9515Z" fill="white"/>
<path fill-rule="evenodd" clip-rule="evenodd" d="M114.264 15.3377H109.436V15.3373C109.746 13.9013 110.602 13.1836 112.005 13.1836C113.408 13.1836 114.161 13.9013 114.264 15.3373C114.264 15.3377 114.264 15.3377 114.264 15.3377ZM117.623 11.7004C116.374 10.4413 114.635 9.81152 112.407 9.81152C109.869 9.81152 107.867 10.5818 106.402 12.1216C105.655 12.9218 105.088 13.8779 104.701 14.9905C104.371 15.9417 104.22 16.9523 104.237 17.9598C104.273 20.0138 104.907 21.622 106.14 22.7837C107.408 23.9808 109.167 24.5789 111.416 24.5789C113.831 24.5789 115.729 23.9442 117.112 22.6745C117.524 22.2582 117.875 21.8267 118.164 21.3787C118.453 20.9314 118.742 20.3122 119.031 19.5215C119.031 19.5212 119.031 19.5212 119.031 19.5212H113.46C113.274 20.4785 112.624 20.9571 111.51 20.9571C110.705 20.9571 110.065 20.7183 109.59 20.2393C109.405 20.0104 109.276 19.755 109.204 19.4743C109.131 19.1933 109.095 18.7826 109.095 18.2413H109.095H119.433V18.2409C119.454 17.95 119.469 17.6897 119.479 17.4604C119.49 17.2318 119.496 17.0652 119.496 16.961C119.496 14.7132 118.871 12.9599 117.623 11.7004Z" fill="white"/>
</svg>
